<?xml version="1.0" standalone="no"?>
<!DOCTYPE svg PUBLIC "-//W3C//DTD SVG 20010904//EN"
 "https://www.w3.org/TR/2001/REC-SVG-20010904/DTD/svg10.dtd">
<svg version="1.0" xmlns="https://www.w3.org/2000/svg"
 width="1080.000000pt" height="654.000000pt" viewBox="0 0 1080.000000 654.000000"
 preserveAspectRatio="xMidYMid meet">
<metadata>
Created by potrace 1.15, written by Peter Selinger 2001-2017
</metadata>
<g transform="translate(0.000000,654.000000) scale(0.100000,-0.100000)"
fill="#000000" stroke="none">
<path d="M9345 4244 c-110 -22 -188 -66 -281 -158 -51 -51 -90 -101 -107 -136
-52 -108 -75 -254 -42 -266 25 -10 45 16 45 58 0 54 35 152 77 215 113 171
341 273 511 229 112 -29 218 -123 278 -249 42 -88 44 -100 51 -205 18 -276
-139 -477 -397 -508 -30 -4 -61 -11 -67 -17 -10 -7 -13 -54 -13 -173 0 -153 1
-165 20 -176 25 -16 25 -26 -1 -54 -32 -34 -29 -101 5 -131 34 -29 75 -29 110
-2 22 17 26 29 26 68 0 38 -5 52 -25 71 l-26 24 22 17 c20 14 22 28 28 137 7
138 15 153 88 171 113 29 227 114 302 226 155 233 125 528 -74 714 -141 131
-333 184 -530 145z m247 -19 c15 -3 40 -10 55 -17 16 -6 36 -13 46 -14 26 -6
94 -51 144 -97 37 -34 43 -45 38 -66 -3 -16 -2 -21 3 -13 7 10 11 10 22 -3 11
-13 10 -15 -6 -9 -11 3 -5 -5 14 -21 17 -14 32 -33 32 -41 0 -9 5 -12 12 -8 6
4 8 3 5 -3 -4 -6 0 -16 8 -23 11 -9 12 -16 5 -25 -7 -9 -7 -15 -1 -19 5 -4 8
-17 5 -31 -3 -17 3 -28 18 -40 l23 -15 -22 -6 c-20 -5 -20 -8 -8 -21 14 -13
21 -43 11 -43 -24 0 -36 17 -36 48 0 93 -71 243 -148 316 -17 16 -29 34 -25
39 3 6 1 7 -5 3 -6 -3 -18 4 -27 16 -8 13 -18 22 -20 21 -3 -2 -35 12 -72 30
-38 18 -86 34 -107 36 -22 1 -49 7 -60 12 -21 10 34 6 96 -6z"/>
<path d="M7038 4232 c-19 -2 -30 -10 -33 -25 -3 -12 -7 -143 -9 -292 -2 -148
-5 -275 -7 -282 -3 -14 -33 -4 -88 31 -22 14 -68 35 -103 47 -85 30 -258 38
-347 15 -182 -47 -318 -171 -390 -359 -19 -48 -37 -87 -41 -87 -12 0 -20 87
-20 225 0 169 -5 194 -42 209 l-28 12 30 27 c23 21 30 35 30 66 0 47 -24 71
-72 71 -71 0 -95 -85 -38 -133 17 -14 30 -28 30 -30 0 -3 -13 -10 -28 -15 -36
-12 -42 -47 -42 -241 0 -177 -1 -179 -98 -163 -39 7 -91 12 -116 12 -25 0 -47
4 -50 9 -3 5 2 26 11 47 9 22 24 66 33 99 16 56 20 62 74 93 56 33 96 80 96
114 0 21 -94 72 -116 64 -8 -3 -14 -14 -14 -24 0 -24 -37 -72 -55 -72 -7 0
-32 16 -55 35 -51 42 -107 59 -181 52 -91 -8 -154 -53 -192 -136 -17 -38 -19
-57 -13 -136 l7 -91 -57 -19 c-33 -11 -75 -36 -102 -60 -39 -36 -45 -47 -49
-91 -5 -43 -2 -54 22 -82 58 -70 142 -62 280 27 121 78 188 102 303 109 113 6
195 -15 239 -60 l28 -29 5 -240 c4 -198 8 -241 20 -249 21 -14 117 -12 126 2
4 6 10 57 14 114 3 57 9 107 13 111 12 11 35 -29 48 -82 16 -65 16 -204 0
-280 -39 -182 -178 -354 -327 -405 -70 -25 -195 -27 -279 -5 -124 33 -251 125
-329 239 -90 129 -116 293 -76 462 20 81 21 97 9 105 -23 14 -28 11 -48 -29
-51 -99 -54 -299 -8 -432 47 -133 139 -247 269 -330 87 -57 172 -81 299 -87
238 -12 438 88 568 283 58 86 90 178 98 281 3 39 9 77 14 84 9 15 32 9 139
-37 119 -50 325 -45 449 13 143 67 260 211 306 381 10 34 22 62 26 62 5 0 9
-1 9 -3 0 -21 70 -194 95 -232 51 -80 142 -162 220 -200 99 -47 163 -59 291
-53 118 6 206 32 281 82 60 41 93 32 93 -25 0 -23 30 -32 90 -27 43 3 45 4 53
43 4 22 7 166 5 320 -4 274 -4 281 -30 349 -65 169 -205 297 -373 341 -74 19
-232 19 -302 1 -180 -48 -315 -174 -389 -361 -33 -84 -41 -95 -49 -64 -3 13
-7 223 -8 466 -1 279 -6 446 -12 452 -12 11 -69 18 -107 13z m-295 -587 c104
-52 210 -197 236 -323 19 -91 14 -228 -12 -303 -44 -129 -132 -240 -231 -291
-56 -29 -178 -36 -241 -15 -130 45 -249 193 -284 355 -35 167 4 338 108 469
80 102 166 144 286 140 66 -2 90 -7 138 -32z m1147 7 c92 -45 189 -163 231
-283 33 -93 33 -267 1 -358 -44 -122 -129 -227 -227 -279 -44 -24 -61 -27
-145 -27 -87 0 -100 3 -148 30 -64 35 -153 128 -186 194 -64 126 -79 293 -38
427 39 127 139 249 245 300 46 22 62 25 137 21 61 -3 98 -10 130 -25z m-2451
-38 c27 -56 28 -144 2 -200 -23 -51 -36 -60 -66 -44 -24 13 -55 91 -55 139 0
47 30 130 51 145 29 20 44 11 68 -40z m-129 -329 c19 -18 19 -19 -56 -65 -81
-52 -108 -55 -127 -13 -9 20 -7 31 7 58 10 19 26 36 35 39 35 10 121 -1 141
-19z"/>
<path d="M2993 4218 c-11 -17 -16 -1469 -5 -1511 8 -31 10 -32 67 -35 33 -2
63 2 69 8 8 7 13 147 16 443 5 407 6 434 25 472 22 43 83 85 126 85 30 0 62
-31 83 -81 13 -30 15 -104 16 -435 1 -411 4 -474 24 -486 6 -4 31 -8 56 -8 57
0 66 6 74 53 12 65 9 797 -3 843 -37 139 -187 209 -334 157 -42 -15 -49 -15
-57 -3 -6 8 -10 107 -10 220 -1 113 -4 223 -8 245 l-7 40 -62 3 c-42 2 -64 -1
-70 -10z"/>
<path d="M4777 3872 c-38 -42 -16 -103 48 -141 12 -7 14 -11 5 -10 -8 1 -27
-3 -41 -9 -33 -13 -39 -52 -39 -247 0 -140 -6 -205 -19 -205 -4 0 -19 37 -34
83 -65 199 -218 341 -412 382 -138 29 -255 15 -380 -45 -231 -111 -355 -380
-290 -630 49 -188 206 -347 390 -395 95 -24 241 -20 332 10 167 57 293 180
352 347 39 109 44 119 49 113 3 -3 8 -102 12 -221 5 -170 9 -218 21 -225 8 -5
38 -8 68 -7 51 3 55 5 63 33 10 36 12 886 2 951 -5 35 -12 48 -30 56 -30 14
-30 19 1 46 30 26 35 91 9 116 -22 22 -87 21 -107 -2z m-481 -223 c63 -29 161
-129 196 -199 61 -122 77 -298 38 -421 -43 -140 -151 -269 -259 -310 -77 -29
-186 -24 -255 11 -60 31 -159 136 -196 210 -79 159 -72 390 18 530 65 102 149
174 232 197 63 18 166 9 226 -18z"/>
<path d="M8331 3701 c-18 -11 -10 -96 18 -202 11 -41 45 -184 76 -319 31 -135
75 -315 96 -400 21 -85 39 -164 39 -176 0 -12 -16 -88 -35 -170 -19 -82 -35
-152 -35 -155 0 -3 11 -11 25 -17 20 -9 27 -9 30 1 5 15 84 325 124 492 153
628 221 929 213 937 -6 6 -18 8 -28 6 -16 -2 -31 -51 -91 -298 -86 -349 -96
-385 -108 -385 -15 0 -41 86 -105 350 -62 255 -83 324 -103 337 -17 11 -99 10
-116 -1z"/>
</g>
</svg>
